<svg xmlns="http://www.w3.org/2000/svg" viewBox="0 0 512 512"><linearGradient id="a" gradientUnits="userSpaceOnUse" x1="0" y1="258" x2="512" y2="258" gradientTransform="matrix(1 0 0 -1 0 514)"><stop offset="0" stop-color="#00f2fe"/><stop offset=".021" stop-color="#03effe"/><stop offset=".293" stop-color="#24d2fe"/><stop offset=".554" stop-color="#3cbdfe"/><stop offset=".796" stop-color="#4ab0fe"/><stop offset="1" stop-color="#4facfe"/></linearGradient><path d="M256 512c-68.38 0-132.667-26.629-181.02-74.98C26.629 388.667 0 324.38 0 256S26.629 123.333 74.98 74.98C123.333 26.629 187.62 0 256 0s132.667 26.629 181.02 74.98C485.371 123.333 512 187.62 512 256c0 50.53-14.998 99.674-43.374 142.116-6.138 9.182-18.558 11.651-27.742 5.51-9.182-6.139-11.649-18.56-5.51-27.742C459.335 340.044 472 298.589 472 256c0-119.103-96.897-216-216-216S40 136.897 40 256s96.897 216 216 216c39.505 0 78.144-10.756 111.737-31.106 9.446-5.723 21.745-2.705 27.469 6.744 5.723 9.447 2.703 21.745-6.744 27.469C348.617 499.242 302.813 512 256 512zm-21.335-151.423l112.847-65.482C361.593 286.924 370 272.309 370 256s-8.407-30.924-22.488-39.095l-112.847-65.482c-14.087-8.174-30.922-8.202-45.032-.074-14.163 8.155-22.618 22.798-22.618 39.169v130.965c0 16.371 8.455 31.014 22.618 39.169 7.034 4.052 14.742 6.076 22.452 6.076 7.757 0 15.516-2.052 22.58-6.151zm-20.076-174.556l112.847 65.482c2.12 1.229 2.564 3.124 2.564 4.497s-.444 3.268-2.564 4.497l-112.847 65.482c-2.063 1.199-3.855.665-4.994.01-1.178-.678-2.58-2.01-2.58-4.507V190.518c0-2.497 1.402-3.829 2.58-4.507.646-.372 1.501-.703 2.496-.703.761 0 1.604.194 2.498.713z" fill="url(#a)"/></svg>